<svg width="13" height="13" viewBox="0 0 13 13" fill="none" xmlns="http://www.w3.org/2000/svg">
<path d="M12.707 0.999999C12.707 0.447714 12.2593 -1.14869e-06 11.707 -1.40157e-06L2.70703 -6.00782e-07C2.15475 -9.37957e-07 1.70703 0.447715 1.70703 0.999999C1.70703 1.55228 2.15475 2 2.70703 2L10.707 2L10.707 10C10.707 10.5523 11.1547 11 11.707 11C12.2593 11 12.707 10.5523 12.707 10L12.707 0.999999ZM0.707031 12L1.41414 12.7071L12.4141 1.70711L11.707 0.999999L10.9999 0.292892L-7.55191e-05 11.2929L0.707031 12Z" fill="#101700"/>
</svg>
