<svg width="18" height="18" viewBox="0 0 18 18" fill="none" xmlns="http://www.w3.org/2000/svg">
<path d="M3.21418 4.82143C3.21418 3.54271 3.72215 2.31636 4.62634 1.41216C5.53053 0.50797 6.75688 0 8.0356 0C9.31433 0 10.5407 0.50797 11.4449 1.41216C12.3491 2.31636 12.857 3.54271 12.857 4.82143C12.857 4.99192 12.7893 5.15544 12.6687 5.276C12.5482 5.39656 12.3847 5.46429 12.2142 5.46429C12.0437 5.46429 11.8802 5.39656 11.7596 5.276C11.639 5.15544 11.5713 4.99192 11.5713 4.82143C11.5713 3.8837 11.1988 2.98438 10.5357 2.3213C9.87266 1.65823 8.97333 1.28571 8.0356 1.28571C7.09787 1.28571 6.19855 1.65823 5.53548 2.3213C4.8724 2.98438 4.49989 3.8837 4.49989 4.82143C4.49989 4.99192 4.43216 5.15544 4.3116 5.276C4.19104 5.39656 4.02753 5.46429 3.85703 5.46429C3.68654 5.46429 3.52302 5.39656 3.40246 5.276C3.28191 5.15544 3.21418 4.99192 3.21418 4.82143ZM14.4642 8.35714C14.0892 8.35673 13.72 8.45039 13.3906 8.62955C13.2922 8.32492 13.1298 8.0448 12.9145 7.80791C12.6991 7.57102 12.4357 7.38281 12.1418 7.25586C11.8479 7.12892 11.5303 7.06615 11.2102 7.07176C10.8901 7.07737 10.5749 7.15123 10.2856 7.28839V4.82143C10.2856 4.22469 10.0486 3.6524 9.62659 3.23044C9.20464 2.80848 8.63234 2.57143 8.0356 2.57143C7.43887 2.57143 6.86657 2.80848 6.44461 3.23044C6.02266 3.6524 5.7856 4.22469 5.7856 4.82143V11.25L5.47864 10.7574C5.17846 10.2416 4.68565 9.86607 4.10862 9.71356C3.5316 9.56105 2.91762 9.64402 2.40176 9.9442C1.88591 10.2444 1.51042 10.7372 1.35792 11.3142C1.20541 11.8912 1.28837 12.5052 1.58855 13.0211L3.94462 17.0389C3.98414 17.1172 4.03924 17.1865 4.10654 17.2427C4.17384 17.2989 4.25192 17.3407 4.33598 17.3656C4.42004 17.3905 4.5083 17.3979 4.59533 17.3874C4.68237 17.3769 4.76634 17.3488 4.84209 17.3046C4.91783 17.2605 4.98375 17.2013 5.03579 17.1308C5.08784 17.0602 5.1249 16.9798 5.1447 16.8944C5.16451 16.809 5.16664 16.7205 5.15097 16.6342C5.13529 16.548 5.10214 16.4658 5.05355 16.3929L2.69989 12.375C2.63381 12.2652 2.59026 12.1434 2.57179 12.0166C2.55332 11.8899 2.5603 11.7607 2.59232 11.6366C2.62433 11.5126 2.68075 11.3962 2.75826 11.2942C2.83578 11.1922 2.93284 11.1066 3.04378 11.0426C3.15472 10.9785 3.27732 10.9372 3.40441 10.921C3.5315 10.9049 3.66053 10.9142 3.78398 10.9485C3.90742 10.9828 4.02279 11.0413 4.12336 11.1207C4.22393 11.2 4.30768 11.2986 4.36971 11.4107L4.38096 11.4292L5.88203 13.8399C5.95573 13.9588 6.06622 14.0505 6.19671 14.1009C6.32721 14.1513 6.4706 14.1578 6.60512 14.1194C6.73964 14.0809 6.85795 13.9996 6.94208 13.8879C7.02622 13.7761 7.07159 13.6399 7.07132 13.5V4.82143C7.07132 4.56568 7.17291 4.32041 7.35375 4.13958C7.53459 3.95874 7.77986 3.85714 8.0356 3.85714C8.29135 3.85714 8.53662 3.95874 8.71746 4.13958C8.8983 4.32041 8.99989 4.56568 8.99989 4.82143V10.2857C8.99989 10.4562 9.06762 10.6197 9.18818 10.7403C9.30874 10.8608 9.47225 10.9286 9.64275 10.9286C9.81324 10.9286 9.97676 10.8608 10.0973 10.7403C10.2179 10.6197 10.2856 10.4562 10.2856 10.2857V9.32143C10.2856 9.06568 10.3872 8.82041 10.568 8.63958C10.7489 8.45874 10.9941 8.35714 11.2499 8.35714C11.5056 8.35714 11.7509 8.45874 11.9317 8.63958C12.1126 8.82041 12.2142 9.06568 12.2142 9.32143V10.9286C12.2142 11.0991 12.2819 11.2626 12.4025 11.3831C12.523 11.5037 12.6865 11.5714 12.857 11.5714C13.0275 11.5714 13.191 11.5037 13.3116 11.3831C13.4322 11.2626 13.4999 11.0991 13.4999 10.9286V10.6071C13.4999 10.3514 13.6015 10.1061 13.7823 9.92529C13.9632 9.74445 14.2084 9.64286 14.4642 9.64286C14.7199 9.64286 14.9652 9.74445 15.146 9.92529C15.3269 10.1061 15.4285 10.3514 15.4285 10.6071V13.5C15.4285 15.2365 14.8579 16.417 14.8531 16.4266C14.7769 16.5791 14.7645 16.7556 14.8184 16.9173C14.8724 17.079 14.9883 17.2126 15.1408 17.2888C15.23 17.3339 15.3285 17.3573 15.4285 17.3571C15.5479 17.3572 15.665 17.324 15.7666 17.2613C15.8682 17.1986 15.9504 17.1088 16.0038 17.002C16.0336 16.9433 16.715 15.5555 16.715 13.5V10.6071C16.715 10.3116 16.6568 10.019 16.5436 9.74592C16.4305 9.47288 16.2647 9.22481 16.0557 9.01587C15.8467 8.80693 15.5985 8.64121 15.3255 8.52818C15.0524 8.41516 14.7597 8.35704 14.4642 8.35714Z" fill="#9B82F6"/>
</svg>
