<svg width="18" height="22" viewBox="0 0 18 22" fill="none" xmlns="http://www.w3.org/2000/svg">
<path d="M11.25 7.75C11.25 8.41304 10.9866 9.04893 10.5178 9.51777C10.0489 9.98661 9.41304 10.25 8.75 10.25C8.08696 10.25 7.45107 9.98661 6.98223 9.51777C6.51339 9.04893 6.25 8.41304 6.25 7.75C6.25 7.08696 6.51339 6.45107 6.98223 5.98223C7.45107 5.51339 8.08696 5.25 8.75 5.25C9.41304 5.25 10.0489 5.51339 10.5178 5.98223C10.9866 6.45107 11.25 7.08696 11.25 7.75Z" stroke="#D0FF71" stroke-width="1.5"/>
<path d="M14.9719 15.75C16.3669 17.738 17.0339 18.797 16.6369 19.65C16.5969 19.7353 16.5502 19.8177 16.4969 19.897C15.9219 20.75 14.4369 20.75 11.4669 20.75H6.03287C3.06287 20.75 1.57887 20.75 1.00387 19.897C0.95141 19.8181 0.904625 19.7355 0.863869 19.65C0.466869 18.798 1.13387 17.738 2.52887 15.75" stroke="#D0FF71" stroke-width="1.5" stroke-linecap="round" stroke-linejoin="round"/>
<path d="M10.007 16.244C9.66922 16.569 9.21871 16.7505 8.74999 16.7505C8.28127 16.7505 7.83076 16.569 7.49299 16.244C4.40399 13.251 0.264992 9.908 2.28299 5.054C3.37599 2.429 5.99599 0.75 8.74999 0.75C11.504 0.75 14.125 2.43 15.217 5.054C17.233 9.901 13.104 13.261 10.007 16.244Z" stroke="#D0FF71" stroke-width="1.5"/>
</svg>
