<svg width="17" height="17" viewBox="0 0 17 17" fill="none" xmlns="http://www.w3.org/2000/svg">
<g clip-path="url(#clip0_447_397)">
<path d="M15.9142 0.959425L4.32752 10.6154M7.05723 13.3573L9.70195 15.9923C9.86436 16.1587 10.0674 16.2799 10.2911 16.3438C10.5147 16.4077 10.7511 16.4121 10.9769 16.3566C11.204 16.3036 11.4136 16.1931 11.5856 16.0357C11.7576 15.8784 11.8863 15.6794 11.9593 15.458L16.3016 2.44085C16.3931 2.19692 16.4125 1.93181 16.3574 1.67717C16.3024 1.42252 16.1752 1.18909 15.9911 1.00474C15.807 0.820386 15.5738 0.692901 15.3192 0.637497C15.0646 0.582094 14.7995 0.601112 14.5554 0.692282L1.53831 5.03578C1.30927 5.11397 1.10524 5.25186 0.947282 5.43522C0.789323 5.61858 0.683155 5.84077 0.639734 6.07885C0.59512 6.29559 0.605052 6.52002 0.668637 6.73197C0.732222 6.94392 0.847468 7.13675 1.00402 7.29314L4.32752 10.6166L4.21823 14.8254L7.05723 13.3573Z" stroke="#D0FF71" stroke-width="1.21429" stroke-linecap="round" stroke-linejoin="round"/>
</g>
<defs>
<clipPath id="clip0_447_397">
<rect width="17" height="17" fill="white"/>
</clipPath>
</defs>
</svg>
